<svg id="Capa_1" data-name="Capa 1" xmlns="http://www.w3.org/2000/svg" viewBox="0 0 496.01 496.01"><title>innovation</title><path d="M248,312a56,56,0,1,0,56,56A56.07,56.07,0,0,0,248,312Zm0,96a40,40,0,1,1,40-40A40,40,0,0,1,248,408Z"/><rect x="32" y="256.01" width="48" height="16"/><rect x="32" y="288.01" width="48" height="16"/><rect x="416" y="256.01" width="48" height="16"/><rect x="416" y="288.01" width="48" height="16"/><path d="M448,144H343.81a103.44,103.44,0,0,0,7.68-32H456a40,40,0,0,0,0-80H322.88c-.94-1-1.78-2-2.76-2.94a103.25,103.25,0,0,0-76.18-29c-27.22,1-52.11,13.22-70.25,31.93H70.56L12.69,53.7a19.55,19.55,0,0,0,0,36.61L70.56,112h73.92a103.31,103.31,0,0,0,7.74,32H48v80H0V336H112V224H64V160h96v-1.07a104.06,104.06,0,0,0,32,32.62V200H176v16h16v16H176v16h16.64a55.68,55.68,0,0,0,8.74,23l-22.23-15.1-43.3,43.3L153.39,325c-1,2.18-1.92,4.39-2.75,6.59L120,337.39v61.23l30.63,5.83c.83,2.2,1.75,4.41,2.75,6.59l-17.54,25.82,43.3,43.3L205,462.62c2.19,1,4.39,1.93,6.58,2.76L217.39,496h61.23l5.84-30.62c2.19-.83,4.39-1.75,6.58-2.76l25.82,17.54,43.3-43.3L342.62,411c1-2.18,1.92-4.39,2.75-6.59L376,398.62V337.39l-30.63-5.83c-.83-2.2-1.75-4.41-2.75-6.59l17.54-25.82-43.3-43.3L294.63,271A55.59,55.59,0,0,0,303.36,248H320V232H304V216h16V200H304v-8.46a104.1,104.1,0,0,0,32-32.68V160h96v64H384V336H496V224H448V144ZM64,92.46,18.3,75.33a3.55,3.55,0,0,1,0-6.64L64,51.55ZM96,240v80H16V240H96ZM384,96H351.6a103.27,103.27,0,0,0-2.47-16H384V96Zm48-48h24a24,24,0,1,1,0,48H432Zm-32,0h16V96H400Zm-16,0V64H344a102.78,102.78,0,0,0-8.48-16ZM144.43,96H80V80h67A100.12,100.12,0,0,0,144.43,96ZM152,64.8V64H80V48h80.94A104.83,104.83,0,0,0,152,64.8Zm162.9,211.73,24.58,24.58-15.38,22.62,2.17,4.22A88.85,88.85,0,0,1,331.74,341l1.46,4.51L360,350.62v34.77l-26.82,5.11L331.73,395a88,88,0,0,1-5.46,13.06l-2.17,4.22,15.38,22.62L314.9,459.49l-22.62-15.37-4.22,2.17A88.54,88.54,0,0,1,275,451.74l-4.51,1.46-5.1,26.8H230.62l-5.11-26.81L221,451.73a87.69,87.69,0,0,1-13.06-5.46l-4.22-2.17L181.1,459.48,156.52,434.9l15.38-22.62-2.17-4.22A88.85,88.85,0,0,1,164.27,395l-1.46-4.51L136,385.39V350.62l26.82-5.11,1.46-4.51a88,88,0,0,1,5.46-13.06l2.17-4.22L156.52,301.1l24.58-24.58,22.62,15.37,4.22-2.17a87.26,87.26,0,0,1,8.26-3.69,55.71,55.71,0,0,0,63.6,0c2.74,1.08,5.5,2.28,8.26,3.69l4.22,2.17ZM288,216v16H208V216Zm-64-96H208a16,16,0,1,1,16-16Zm16,80V136h16v64Zm47.19,48a40,40,0,0,1-78.38,0H287.2Zm4.8-67.87-4,2.31V200H272V136h16a32,32,0,1,0-32-32v16H240V104a32,32,0,1,0-32,32h16v64H208V182.45l-4-2.31a88.07,88.07,0,0,1-44-78.19c1-45.61,39-84.13,84.52-85.86C245.71,16,246.87,16,248,16a88,88,0,0,1,88,88A88.31,88.31,0,0,1,292,180.13ZM272,120V104a16,16,0,1,1,16,16ZM480,240v80H400V240h80Z"/></svg>